# xmcd
#
# Track frame offsets:
# 150
# 57792
# 73595
# 89485
# 101912
# 117035
# 131725
# 151727
# 162217
# 184542
# 196557
# 210637
#
# Disc length: 3071 seconds
#
# Revision: 0
# Processed by: cddbd v1.5.1PL0 Copyright (c) Steve Scherf et al.
# Submitted via: Audion 3.0.2 (http://www.panic.com/audion/)
#
DISCID=9a0bfd0c
DTITLE=Syl Johnson - Back In The Game
DYEAR=1900
DGENRE=
TTITLE0=Back In The Game
TTITLE1=I Like Your Style
TTITLE2=I Can't Stop
TTITLE3=Please Don't Give Up On Me
TTITLE4=Keep On Loving Me
TTITLE5=Take Me To The River
TTITLE6=Ghetto Woman
TTITLE7=Watch What You Do To Me
TTITLE8=Dipped In The Water
TTITLE9=Driving Wheel
TTITLE10=Anyway The Wind Blows
TTITLE11=Clean Up Man
EXTD=
EXTT0=
EXTT1=
EXTT2=
EXTT3=
EXTT4=
EXTT5=
EXTT6=
EXTT7=
EXTT8=
EXTT9=
EXTT10=
EXTT11=
PLAYORDER=
